<svg width="21" height="21" viewBox="0 0 21 21" fill="none" xmlns="http://www.w3.org/2000/svg">
<rect x="0.629395" y="0.0439453" width="20.3183" height="20.3183" rx="1.45131" fill="#EDEFF6"/>
<path d="M7.16008 12.0174C8.16201 12.0174 8.97422 11.2052 8.97422 10.2033C8.97422 9.20138 8.16201 8.38916 7.16008 8.38916C6.15816 8.38916 5.34595 9.20138 5.34595 10.2033C5.34595 11.2052 6.15816 12.0174 7.16008 12.0174Z" stroke="#4A60A1" stroke-width="0.936687" stroke-linecap="round" stroke-linejoin="round"/>
<path d="M13.5097 16.0995C14.5116 16.0995 15.3238 15.2872 15.3238 14.2853C15.3238 13.2834 14.5116 12.4712 13.5097 12.4712C12.5078 12.4712 11.6956 13.2834 11.6956 14.2853C11.6956 15.2872 12.5078 16.0995 13.5097 16.0995Z" stroke="#4A60A1" stroke-width="0.936687" stroke-linecap="round" stroke-linejoin="round"/>
<path d="M13.5097 7.9354C14.5116 7.9354 15.3238 7.12319 15.3238 6.12127C15.3238 5.11935 14.5116 4.30713 13.5097 4.30713C12.5078 4.30713 11.6956 5.11935 11.6956 6.12127C11.6956 7.12319 12.5078 7.9354 13.5097 7.9354Z" stroke="#4A60A1" stroke-width="0.936687" stroke-linecap="round" stroke-linejoin="round"/>
<path d="M11.9848 7.10254L8.6853 9.22281" stroke="#4A60A1" stroke-width="0.936687" stroke-linecap="round" stroke-linejoin="round"/>
<path d="M8.6853 11.1841L11.9848 13.3044" stroke="#4A60A1" stroke-width="0.936687" stroke-linecap="round" stroke-linejoin="round"/>
</svg>
